<svg width="244" height="152" viewBox="0 0 244 152" fill="none" xmlns="http://www.w3.org/2000/svg">
<path d="M82.6507 101.167C76.3247 95.9201 71.2773 92.2026 67.6836 90.6171C59.2876 86.913 53.796 84.9571 48.1325 83.9274C42.4334 82.8912 36.3303 82.7494 26.6154 82.9985C20.9117 83.1448 16.1848 81.7158 12.5898 78.9339C9.01143 76.1649 6.94256 72.3555 5.99927 68.4252C4.17378 60.819 6.35962 51.9245 11.1255 46.5229L82.6507 101.167ZM82.6507 101.167C86.054 103.99 89.5618 107.023 93.2501 110.213C96.4443 112.976 99.7738 115.855 103.288 118.816C110.671 125.037 118.485 131.277 126.188 136.262C133.829 141.207 141.723 145.159 149.247 146.437C163.697 148.89 185.946 144.822 204.522 135.113C223.09 125.409 239.5 109.209 239.5 86.5C239.5 64.9201 230.904 45.5849 212.386 31.1965C194.032 16.9361 166.276 7.78845 128.27 5.50808C90.1368 3.22012 62.8897 11.0567 44.0907 20.7638C25.3025 30.4654 15.1873 41.9188 11.217 46.4193C11.2169 46.4193 11.2169 46.4194 11.2169 46.4194L11.1257 46.5227L82.6507 101.167Z" fill="#FF8C8C" stroke="#F9E9E9" stroke-width="9"/>
<path d="M169.339 115.108C163.655 122.969 152.089 121.758 144.108 115.987C136.126 110.216 133.52 102.028 139.203 94.1682C144.887 86.3082 157.081 88.3973 165.063 94.1682C173.044 99.9392 175.022 107.248 169.339 115.108Z" fill="#F9E9E9"/>
</svg>
